<?xml version="1.0" encoding="UTF-8" standalone="no"?>
<!-- Created with Inkscape (http://www.inkscape.org/) -->

<svg
   width="48.005852mm"
   height="9.3873901mm"
   viewBox="0 0 48.005852 9.3873901"
   version="1.1"
   id="svg5"
   inkscape:version="1.1.2 (b8e25be833, 2022-02-05)"
   sodipodi:docname="logo_small.svg"
   xmlns:inkscape="http://www.inkscape.org/namespaces/inkscape"
   xmlns:sodipodi="http://sodipodi.sourceforge.net/DTD/sodipodi-0.dtd"
   xmlns="http://www.w3.org/2000/svg"
   xmlns:svg="http://www.w3.org/2000/svg">
  <sodipodi:namedview
     id="namedview7"
     pagecolor="#505050"
     bordercolor="#eeeeee"
     borderopacity="1"
     inkscape:pageshadow="0"
     inkscape:pageopacity="0"
     inkscape:pagecheckerboard="0"
     inkscape:document-units="mm"
     showgrid="false"
     inkscape:zoom="1.0469406"
     inkscape:cx="-49.190946"
     inkscape:cy="118.44034"
     inkscape:window-width="1920"
     inkscape:window-height="1017"
     inkscape:window-x="-8"
     inkscape:window-y="-8"
     inkscape:window-maximized="1"
     inkscape:current-layer="text1815" />
  <defs
     id="defs2" />
  <g
     inkscape:label="Ebene 1"
     inkscape:groupmode="layer"
     id="layer1"
     transform="translate(-77.380897,-115.44472)">
    <g
       aria-label="scope42"
       id="text1815"
       style="font-size:10.5833px;line-height:1.25;stroke-width:0.264583">
      <path
         d="m 79.201224,117.00047 c -1.301746,0 -1.820327,0.62441 -1.820327,1.62982 0,0.85725 0.380998,1.62983 1.92616,1.62983 h 1.322913 c 0.560915,0 0.793747,0.17992 0.793747,0.62442 0,0.43391 -0.211666,0.61383 -0.730248,0.61383 h -3.249073 v 1.09008 h 3.249073 c 1.31233,0 1.830911,-0.6985 1.830911,-1.69333 0,-0.86783 -0.391582,-1.57691 -1.936744,-1.57691 h -1.312329 c -0.624414,0 -0.793747,-0.21167 -0.793747,-0.60325 0,-0.42333 0.211666,-0.635 0.730247,-0.635 h 3.090324 v -1.07949 z"
         style="font-family:Nasalization;-inkscape-font-specification:'Nasalization, Normal';fill:#ffffff"
         id="path40924" />
      <path
         d="m 86.006291,117.00047 c -1.492246,0 -2.423576,0.91016 -2.423576,2.79399 0,1.88382 0.93133,2.79399 2.423576,2.79399 h 2.878657 v -1.09008 h -2.772824 c -0.973664,0 -1.396996,-0.49742 -1.396996,-1.70391 0,-1.2065 0.423332,-1.7145 1.396996,-1.7145 h 2.772824 v -1.07949 z"
         style="font-family:Nasalization;-inkscape-font-specification:'Nasalization, Normal';fill:#ffffff"
         id="path40926" />
      <path
         d="m 92.377429,117.00047 c -1.492245,0 -2.423575,0.91016 -2.423575,2.79399 0,1.88382 0.93133,2.79399 2.423575,2.79399 h 1.174747 c 1.481662,0 2.423575,-0.91017 2.423575,-2.79399 0,-1.88383 -0.941913,-2.79399 -2.423575,-2.79399 z m 1.068914,1.07949 c 0.96308,0 1.396995,0.508 1.396995,1.7145 0,1.20649 -0.433915,1.70391 -1.396995,1.70391 h -0.963081 c -0.973663,0 -1.396995,-0.49742 -1.396995,-1.70391 0,-1.2065 0.423332,-1.7145 1.396995,-1.7145 z"
         style="font-family:Nasalization;-inkscape-font-specification:'Nasalization, Normal';fill:#ffffff"
         id="path40928" />
      <path
         d="m 99.35182,117.00047 c -1.344079,0 -2.053161,0.78316 -2.053161,2.39182 v 5.43982 h 1.12183 v -2.24366 h 2.476491 c 1.48166,0 2.41299,-0.91017 2.41299,-2.79399 0,-1.88383 -0.93133,-2.79399 -2.41299,-2.79399 z m -0.931331,2.44474 c 0,-0.96308 0.349249,-1.36525 1.259413,-1.36525 h 1.100668 c 0.97366,0 1.39699,0.508 1.39699,1.7145 0,1.20649 -0.42333,1.70391 -1.39699,1.70391 h -2.360081 z"
         style="font-family:Nasalization;-inkscape-font-specification:'Nasalization, Normal';fill:#ffffff"
         id="path40930" />
      <path
         d="m 106.48497,117.00047 c -1.39699,0 -1.94733,0.78316 -1.94733,1.84149 v 1.90499 c 0,1.05833 0.55034,1.8415 1.94733,1.8415 h 3.41841 v -1.09008 h -3.41841 c -0.61383,0 -0.85725,-0.32808 -0.85725,-0.77258 v -0.40217 h 2.65641 c 1.37583,0 1.89441,-0.58208 1.89441,-1.60866 0,-1.0795 -0.56091,-1.71449 -1.88382,-1.71449 z m -0.85725,1.85207 c 0,-0.43391 0.24342,-0.77258 0.85725,-0.77258 h 1.79916 c 0.55033,0 0.79375,0.27517 0.79375,0.6985 0,0.41275 -0.22225,0.66675 -0.8255,0.66675 h -2.62466 z"
         style="font-family:Nasalization;-inkscape-font-specification:'Nasalization, Normal';fill:#ffffff"
         id="path40932" />
      <path
         d="m 111.54379,118.71496 c -0.26458,0.3175 -0.4445,0.62441 -0.4445,1.15358 0,0.80433 0.4445,1.23825 1.651,1.23825 h 3.34432 v 1.48166 h 1.25941 v -5.84198 c 0,-0.84667 -0.37041,-1.30175 -1.29116,-1.30175 h -0.79375 c -0.85724,0 -1.21707,0.27517 -1.66157,0.80433 z m 3.02683,-1.71449 c 0.20108,-0.23284 0.32808,-0.30692 0.64558,-0.30692 h 0.56091 c 0.22225,0 0.3175,0.127 0.3175,0.34925 v 2.95274 h -3.12207 c -0.33867,0 -0.47625,-0.127 -0.47625,-0.34925 0,-0.13758 0.0423,-0.23283 0.127,-0.32808 z"
         style="font-family:Nasalization;-inkscape-font-specification:'Nasalization, Normal';fill:#ffffff"
         id="path40934" />
      <path
         d="m 119.1426,115.44472 v 1.24883 h 4.12749 c 0.5715,0 0.87842,0.3175 0.87842,0.79375 0,0.33866 -0.15875,0.58208 -0.66675,0.69849 l -3.00566,0.68792 c -1.21708,0.27517 -1.56633,0.889 -1.56633,2.05316 v 1.0795 c 0,0.39158 0.1905,0.58208 0.59267,0.58208 h 5.69381 v -1.24883 h -4.90007 c -0.0953,0 -0.13758,-0.0318 -0.13758,-0.14817 v -0.35983 c 0,-0.40217 0.0952,-0.66675 0.59267,-0.78316 l 2.9739,-0.66675 c 1.15358,-0.26458 1.66158,-0.85725 1.66158,-1.91558 0,-1.31233 -0.77258,-2.02141 -2.14841,-2.02141 z"
         style="font-family:Nasalization;-inkscape-font-specification:'Nasalization, Normal';fill:#ffffff"
         id="path40936" />
    </g>
  </g>
</svg>
