<?xml version="1.0" standalone="no"?>
<!DOCTYPE svg PUBLIC "-//W3C//DTD SVG 20010904//EN"
 "http://www.w3.org/TR/2001/REC-SVG-20010904/DTD/svg10.dtd">
<svg version="1.0" xmlns="http://www.w3.org/2000/svg"
 width="512.000000pt" height="512.000000pt" viewBox="0 0 512.000000 512.000000"
 preserveAspectRatio="xMidYMid meet">
<metadata>
Created by potrace 1.14, written by Peter Selinger 2001-2017
</metadata>
<g transform="translate(0.000000,512.000000) scale(0.100000,-0.100000)"
fill="#000000" stroke="none">
<path d="M2280 5054 c-492 -64 -911 -237 -1285 -532 -81 -64 -310 -291 -376
-372 -278 -343 -464 -754 -534 -1180 -38 -225 -41 -545 -10 -763 122 -832 646
-1546 1401 -1909 214 -102 476 -185 679 -213 22 -3 45 -8 51 -10 55 -18 428
-26 584 -13 489 43 979 245 1365 563 439 363 742 861 859 1415 25 119 29 145
43 270 10 93 10 388 1 495 -21 228 -88 491 -179 711 -338 812 -1077 1394
-1934 1523 -38 6 -88 13 -110 16 -84 13 -450 12 -555 -1z m474 -458 c69 -7
146 -19 261 -41 47 -9 213 -61 289 -90 82 -31 264 -120 287 -141 8 -8 19 -14
23 -14 11 0 169 -107 206 -140 19 -17 36 -30 39 -30 12 0 211 -198 271 -269
93 -110 194 -269 266 -416 36 -71 68 -143 74 -160 5 -16 18 -57 30 -90 46
-133 85 -318 95 -454 11 -135 12 -171 6 -172 -3 -1 -77 -2 -163 -3 -104 -1
-158 2 -158 9 0 7 -3 7 -8 -1 -5 -7 -193 -10 -588 -10 -536 0 -582 -1 -598
-17 -10 -9 -23 -17 -29 -17 -6 0 4 -8 23 -19 33 -17 74 -18 775 -18 l740 0 1
-69 c2 -61 -5 -126 -21 -229 -5 -29 -27 -124 -46 -196 -8 -34 -10 -35 -50 -32
-22 2 -38 -1 -35 -6 4 -5 20 -7 36 -5 38 6 38 -2 4 -98 -63 -178 -232 -481
-321 -575 -17 -18 -29 -34 -27 -36 3 -2 -44 -53 -103 -113 -87 -89 -190 -178
-288 -252 -36 -26 -132 -85 -235 -143 -50 -28 -156 -75 -224 -100 -71 -26 -92
-29 -197 -29 -101 0 -118 2 -113 15 4 8 1 15 -5 15 -6 0 -10 -6 -8 -12 1 -10
-41 -14 -180 -15 l-183 -2 -1 27 c-1 29 -1 152 0 164 1 4 17 6 37 4 19 -1 37
1 40 6 3 4 -14 8 -38 8 l-43 0 1 104 c1 57 5 109 9 116 4 7 4 15 -1 19 -5 3
-9 50 -9 104 l0 97 249 0 c137 0 247 2 244 5 -3 3 -114 6 -247 7 -132 0 -241
3 -242 7 -1 8 -1 161 0 189 1 20 6 22 54 23 43 1 47 3 22 9 -16 4 -41 5 -55 3
l-25 -5 1 109 1 108 147 3 c80 1 146 6 146 10 0 4 -65 6 -145 4 -145 -3 -145
-3 -146 20 -4 85 -1 146 6 158 5 9 4 11 -3 6 -7 -4 -12 -3 -12 2 0 5 -9 12
-19 15 -35 9 -47 -21 -46 -116 l0 -88 -245 1 c-334 1 -330 1 -330 -7 0 -5 129
-8 287 -8 l288 0 0 -220 0 -220 -257 -1 -257 -2 -42 87 c-46 94 -134 238 -174
283 -14 15 -25 31 -25 34 0 4 -8 13 -17 20 -12 9 -14 14 -5 15 6 1 18 2 25 3
6 1 18 -2 24 -7 8 -6 13 -6 13 0 0 6 11 9 25 8 14 -2 25 1 25 6 0 6 -15 8 -35
5 -24 -4 -35 -2 -35 7 0 8 -3 8 -8 2 -17 -25 -56 -6 -116 56 -33 35 -60 66
-59 71 2 4 -5 4 -14 1 -12 -5 -14 -3 -8 8 4 8 5 11 1 7 -9 -7 -52 33 -48 45 1
5 -3 5 -9 1 -6 -3 -15 0 -20 7 -4 7 -11 10 -15 7 -7 -8 19 -38 34 -38 15 0 53
-46 45 -55 -5 -4 -3 -5 3 -2 11 6 97 -67 89 -75 -3 -3 6 -11 20 -18 14 -7 25
-16 25 -20 0 -3 9 -16 21 -28 11 -12 17 -27 13 -34 -4 -6 -3 -8 3 -5 18 11
112 -123 194 -277 27 -50 49 -96 49 -102 0 -6 8 -29 17 -50 9 -22 17 -41 18
-44 0 -3 4 -11 9 -18 4 -7 6 -18 3 -25 -2 -7 2 -18 9 -25 20 -18 17 -1 -11 73
l-24 65 257 0 257 0 0 -177 c1 -111 -3 -181 -10 -185 -6 -5 -6 -8 3 -8 14 0
12 -61 -3 -72 -7 -5 -7 -11 0 -15 6 -5 10 -48 10 -98 l0 -90 -178 -1 c-164 -1
-179 0 -188 17 -7 14 -6 19 3 19 9 0 10 2 2 8 -6 4 -14 30 -18 57 -3 28 -8 59
-10 70 -3 11 -5 26 -5 33 -1 6 -5 12 -10 12 -5 0 -5 -16 -1 -37 5 -21 11 -58
15 -83 3 -25 8 -58 11 -73 l6 -28 -124 2 c-115 2 -129 4 -213 37 -99 39 -318
149 -323 163 -2 5 -10 9 -17 9 -7 0 -26 12 -43 28 -17 15 -36 28 -43 30 -7 2
-21 12 -30 23 -10 11 -21 21 -26 22 -4 1 -7 6 -5 10 1 5 -2 6 -6 3 -5 -3 -20
4 -33 15 -13 12 -34 28 -46 36 -16 11 -21 22 -18 44 2 16 0 27 -5 24 -5 -3 -7
-12 -3 -20 8 -23 -12 -18 -40 11 -15 15 -24 31 -20 37 4 6 1 7 -7 2 -9 -5 -24
5 -46 31 -19 21 -34 42 -34 47 0 4 -4 6 -9 3 -9 -6 -26 22 -22 37 1 5 -3 6 -8
3 -5 -4 -22 11 -38 31 -15 21 -31 40 -35 41 -5 2 -8 10 -8 18 0 9 -4 12 -10 9
-5 -3 -10 0 -10 9 0 8 -4 16 -9 18 -16 6 -131 194 -187 305 -50 99 -55 115
-43 130 13 16 12 17 -3 4 -10 -7 -18 -11 -18 -9 0 2 -12 38 -26 79 -36 103
-39 120 -17 116 10 -1 24 -6 30 -10 7 -5 13 -4 13 1 0 13 33 10 42 -3 5 -6 8
-4 8 5 0 13 1 13 10 0 7 -11 10 -11 10 -2 0 10 5 10 21 1 12 -6 19 -7 16 -2
-4 6 13 9 39 9 33 -1 43 -4 39 -15 -4 -11 -3 -11 9 -2 8 7 20 10 26 6 5 -3 10
-1 10 5 0 6 4 9 8 6 18 -11 62 -14 67 -5 4 5 14 9 23 9 15 0 15 -2 2 -10 -11
-7 -8 -8 13 -6 15 1 30 6 34 9 3 4 12 2 19 -4 8 -7 14 -7 19 1 3 5 11 10 16
10 6 0 7 -5 3 -11 -5 -8 -1 -8 14 0 27 14 35 14 26 -1 -5 -8 -1 -8 10 1 15 13
19 13 27 0 5 -8 9 -9 9 -4 0 14 73 13 83 0 4 -7 10 -6 15 1 8 12 120 12 139 1
7 -4 15 -3 18 3 5 8 11 8 20 0 8 -7 21 -7 38 -1 16 7 28 6 36 -2 8 -8 11 -8
11 1 0 6 11 11 25 10 17 -2 24 -7 20 -16 -2 -7 0 -10 5 -7 6 3 10 13 10 21 0
13 -11 15 -60 11 -40 -3 -60 -1 -60 7 0 7 -3 7 -8 1 -8 -12 -132 -14 -132 -2
0 5 -5 5 -11 1 -18 -11 -89 -10 -89 1 0 6 -5 3 -10 -5 -7 -11 -10 -11 -10 -2
0 7 -5 10 -11 6 -16 -10 -159 -11 -159 -1 0 4 -9 3 -19 -3 -12 -6 -22 -6 -26
-1 -7 12 -42 6 -61 -10 -12 -10 -13 -9 -8 5 3 9 1 16 -5 16 -6 0 -11 -3 -11
-7 0 -5 -16 -8 -35 -8 -19 0 -35 3 -35 7 0 4 -6 5 -13 2 -17 -6 -187 -10 -187
-4 0 3 -15 5 -32 5 -24 0 -34 5 -36 19 -2 10 0 16 5 13 11 -7 11 38 0 49 -3 4
-5 -3 -2 -15 2 -11 0 -21 -5 -21 -9 0 -26 85 -22 108 2 6 -2 12 -9 12 -8 0 -7
5 2 17 12 14 12 16 0 8 -11 -6 -13 -1 -9 23 2 17 0 28 -5 25 -5 -3 -8 3 -7 13
1 11 1 21 0 24 -13 36 -16 115 -3 115 7 0 18 6 25 14 11 12 10 12 -2 5 -30
-17 -41 -13 -38 14 2 15 8 26 14 25 6 -1 11 5 11 12 0 11 -4 12 -13 4 -8 -7
-13 -6 -16 3 -7 19 3 49 13 42 5 -3 6 -10 3 -16 -4 -7 -2 -8 4 -4 6 4 8 14 5
24 -6 14 -4 15 9 4 11 -9 18 -10 23 -2 3 6 11 8 16 4 6 -4 3 -15 -8 -27 -12
-15 -13 -18 -2 -9 9 6 19 8 23 4 4 -4 6 0 4 8 -1 8 3 14 10 12 6 -1 12 1 12 5
0 10 279 7 304 -3 12 -4 17 -4 13 2 -4 8 35 11 53 4 3 -1 10 -1 15 0 19 5 157
2 162 -3 3 -3 16 -2 29 3 14 6 26 6 29 0 4 -7 13 -6 25 0 13 7 21 7 26 -1 4
-7 10 -7 16 -1 5 5 24 6 44 2 19 -4 36 -4 39 0 3 4 20 4 39 0 19 -4 38 -5 41
-2 8 9 55 8 55 -1 0 -4 8 -3 18 2 13 7 23 6 30 -1 7 -7 12 -8 12 -2 0 9 147
10 157 1 2 -3 17 -2 31 2 15 5 36 5 47 1 11 -4 30 -4 41 1 13 4 26 3 33 -4 6
-6 11 -7 11 -1 0 10 83 9 110 -1 8 -4 11 -3 8 1 -4 3 3 15 15 24 l22 18 -22
19 c-16 15 -35 19 -75 18 -29 -1 -59 3 -67 9 -10 7 -13 7 -8 0 8 -14 -135 -13
-145 1 -5 7 -8 7 -8 -1 0 -12 -178 -13 -197 -1 -6 4 -14 4 -16 0 -6 -10 -209
-9 -225 1 -6 3 -13 3 -16 -2 -6 -9 -87 -9 -103 1 -6 4 -15 2 -18 -3 -5 -8 -14
-5 -28 7 -14 11 -17 12 -10 2 11 -13 4 -15 -60 -14 -40 1 -79 5 -86 10 -9 5
-12 4 -8 -2 11 -17 -86 -10 -101 7 -11 13 -11 13 -7 -1 4 -12 0 -15 -17 -13
-13 1 -25 3 -28 4 -3 1 -9 1 -15 0 -33 -8 -182 -4 -177 5 3 6 -2 4 -11 -4 -11
-9 -17 -10 -17 -2 0 6 -5 11 -11 11 -5 0 -8 -4 -5 -8 3 -5 -5 -7 -17 -6 -12 1
-27 3 -33 3 -5 1 -9 16 -7 34 2 17 3 56 3 85 1 29 4 51 8 48 4 -2 7 19 6 47
-1 84 6 96 46 73 12 -7 13 -7 2 5 -7 8 -17 14 -23 14 -5 0 -9 3 -9 8 0 4 0 16
0 28 0 13 4 18 13 13 9 -6 9 -4 1 7 -8 10 -6 33 7 89 10 41 21 85 24 98 3 13
9 21 13 18 4 -2 8 10 8 27 1 18 7 46 14 62 7 17 14 32 15 35 11 44 29 79 37
74 7 -4 8 -2 4 5 -4 6 -3 17 2 24 6 7 10 16 10 20 0 21 26 66 35 60 5 -3 7 -1
3 5 -7 12 13 62 26 62 4 0 7 3 7 8 -4 21 2 32 13 26 8 -5 9 -2 5 9 -3 10 -2
17 3 17 6 0 10 6 10 13 0 28 157 244 174 239 6 -2 8 0 4 4 -21 20 290 331 320
319 7 -2 11 -1 8 4 -6 9 66 71 83 71 5 0 11 3 13 8 7 16 100 72 110 66 6 -4 8
-3 5 4 -4 6 46 36 125 75 172 85 207 99 232 92 13 -4 16 -3 9 2 -14 10 161 68
176 59 5 -4 11 -2 13 3 1 6 17 12 33 15 17 2 30 5 30 6 0 5 182 32 249 36 32
2 60 5 62 6 5 6 230 1 308 -6z m-237 -4040 c4 -4 8 -13 9 -21 2 -15 -11 -19
-51 -17 -105 7 -173 12 -191 16 -12 2 -45 7 -75 11 -107 13 -65 20 117 19 101
-1 187 -4 191 -8z m438 2 c7 -7 -120 -27 -215 -34 -41 -3 -88 -7 -103 -9 -30
-3 -54 24 -37 41 9 9 346 11 355 2z"/>
<path d="M2554 4564 c0 -19 3 -34 8 -34 9 0 7 59 -2 65 -3 2 -5 -12 -6 -31z"/>
<path d="M2559 4518 c-7 -24 -7 -48 0 -52 4 -3 8 8 9 24 0 17 -1 30 -4 30 -2
0 -4 -1 -5 -2z"/>
<path d="M2555 4395 c0 -30 2 -55 6 -55 3 0 6 25 7 55 0 30 -3 55 -6 55 -4 0
-7 -25 -7 -55z"/>
<path d="M2554 4319 c-3 -6 -1 -16 5 -22 8 -8 11 -5 11 11 0 24 -5 28 -16 11z"/>
<path d="M2553 4265 c0 -8 4 -15 9 -15 4 0 8 7 8 15 0 8 -4 15 -8 15 -5 0 -9
-7 -9 -15z"/>
<path d="M1475 4251 c-3 -5 -2 -12 3 -15 5 -3 9 1 9 9 0 17 -3 19 -12 6z"/>
<path d="M1836 4247 c3 -10 9 -15 12 -12 3 3 0 11 -7 18 -10 9 -11 8 -5 -6z"/>
<path d="M2555 4230 c-3 -5 -1 -10 4 -10 6 0 11 5 11 10 0 6 -2 10 -4 10 -3 0
-8 -4 -11 -10z"/>
<path d="M1866 4198 c3 -5 10 -6 15 -3 13 9 11 12 -6 12 -8 0 -12 -4 -9 -9z"/>
<path d="M2554 4195 c4 -24 16 -30 16 -7 0 12 -4 22 -9 22 -5 0 -8 -7 -7 -15z"/>
<path d="M1355 4191 c-3 -5 -2 -12 3 -15 5 -3 9 1 9 9 0 17 -3 19 -12 6z"/>
<path d="M1906 4162 c-3 -5 1 -9 9 -9 8 0 12 4 9 9 -3 4 -7 8 -9 8 -2 0 -6 -4
-9 -8z"/>
<path d="M2555 4095 c0 -36 2 -65 6 -65 3 0 6 29 6 65 0 36 -3 65 -6 65 -4 0
-7 -29 -6 -65z"/>
<path d="M1235 4100 c3 -5 8 -10 11 -10 2 0 4 5 4 10 0 6 -5 10 -11 10 -5 0
-7 -4 -4 -10z"/>
<path d="M2559 4018 c-6 -17 -4 -80 2 -84 5 -2 8 16 7 41 0 37 -4 55 -9 43z"/>
<path d="M1119 3993 c-13 -16 -12 -17 4 -4 9 7 17 15 17 17 0 8 -8 3 -21 -13z"/>
<path d="M1156 3993 c-6 -14 -5 -15 5 -6 7 7 10 15 7 18 -3 3 -9 -2 -12 -12z"/>
<path d="M1133 3951 c0 -11 5 -18 9 -15 4 3 5 11 1 19 -7 21 -12 19 -10 -4z"/>
<path d="M1376 3962 c-3 -5 1 -9 9 -9 8 0 12 4 9 9 -3 4 -7 8 -9 8 -2 0 -6 -4
-9 -8z"/>
<path d="M1756 3962 c-3 -5 1 -9 9 -9 8 0 12 4 9 9 -3 4 -7 8 -9 8 -2 0 -6 -4
-9 -8z"/>
<path d="M1210 3941 c0 -6 4 -13 10 -16 6 -3 7 1 4 9 -7 18 -14 21 -14 7z"/>
<path d="M2553 3905 c0 -8 4 -15 9 -15 4 0 8 7 8 15 0 8 -4 15 -8 15 -5 0 -9
-7 -9 -15z"/>
<path d="M1055 3900 c-3 -5 -1 -10 4 -10 6 0 11 5 11 10 0 6 -2 10 -4 10 -3 0
-8 -4 -11 -10z"/>
<path d="M1095 3900 c3 -5 8 -10 11 -10 2 0 4 5 4 10 0 6 -5 10 -11 10 -5 0
-7 -4 -4 -10z"/>
<path d="M1173 3895 c0 -8 4 -12 9 -9 5 3 6 10 3 15 -9 13 -12 11 -12 -6z"/>
<path d="M2559 3873 c-5 -31 -3 -183 2 -183 4 0 6 43 6 95 0 52 -2 95 -4 95
-1 0 -4 -3 -4 -7z"/>
<path d="M1175 3859 c-3 -4 2 -6 10 -5 21 3 28 13 10 13 -9 0 -18 -4 -20 -8z"/>
<path d="M1370 3840 c0 -5 5 -10 11 -10 5 0 7 5 4 10 -3 6 -8 10 -11 10 -2 0
-4 -4 -4 -10z"/>
<path d="M1435 3841 c-3 -5 -2 -12 3 -15 5 -3 9 1 9 9 0 17 -3 19 -12 6z"/>
<path d="M1173 3825 c0 -8 4 -12 9 -9 5 3 6 10 3 15 -9 13 -12 11 -12 -6z"/>
<path d="M1015 3820 c-3 -5 -1 -10 4 -10 6 0 11 5 11 10 0 6 -2 10 -4 10 -3 0
-8 -4 -11 -10z"/>
<path d="M1055 3820 c3 -5 8 -10 11 -10 2 0 4 5 4 10 0 6 -5 10 -11 10 -5 0
-7 -4 -4 -10z"/>
<path d="M1250 3800 c0 -5 5 -10 11 -10 5 0 7 5 4 10 -3 6 -8 10 -11 10 -2 0
-4 -4 -4 -10z"/>
<path d="M970 3779 c0 -5 5 -7 10 -4 6 3 10 8 10 11 0 2 -4 4 -10 4 -5 0 -10
-5 -10 -11z"/>
<path d="M1010 3779 c0 -5 5 -7 10 -4 6 3 10 8 10 11 0 2 -4 4 -10 4 -5 0 -10
-5 -10 -11z"/>
<path d="M1113 3767 c0 -8 6 -14 14 -14 9 0 10 4 2 14 -6 7 -12 13 -14 13 -1
0 -2 -6 -2 -13z"/>
<path d="M1169 3757 c6 -8 7 -18 3 -22 -4 -5 -1 -5 6 -1 10 6 10 11 1 22 -6 8
-14 14 -16 14 -3 0 0 -6 6 -13z"/>
<path d="M1476 3718 c3 -5 10 -6 15 -3 13 9 11 12 -6 12 -8 0 -12 -4 -9 -9z"/>
<path d="M1195 3699 c-3 -4 2 -6 10 -5 21 3 28 13 10 13 -9 0 -18 -4 -20 -8z"/>
<path d="M2553 3665 c0 -8 4 -15 9 -15 4 0 8 7 8 15 0 8 -4 15 -8 15 -5 0 -9
-7 -9 -15z"/>
<path d="M1215 3659 c-3 -4 2 -6 10 -5 21 3 28 13 10 13 -9 0 -18 -4 -20 -8z"/>
<path d="M856 3647 c3 -10 9 -15 12 -12 3 3 0 11 -7 18 -10 9 -11 8 -5 -6z"/>
<path d="M1115 3640 c3 -5 8 -10 11 -10 2 0 4 5 4 10 0 6 -5 10 -11 10 -5 0
-7 -4 -4 -10z"/>
<path d="M2554 3605 c0 -19 3 -35 7 -35 5 0 8 16 7 35 -1 19 -4 35 -7 35 -3 0
-6 -16 -7 -35z"/>
<path d="M1093 3615 c0 -8 4 -12 9 -9 5 3 6 10 3 15 -9 13 -12 11 -12 -6z"/>
<path d="M1154 3622 c4 -3 14 -7 22 -8 9 -1 13 0 10 4 -4 3 -14 7 -22 8 -9 1
-13 0 -10 -4z"/>
<path d="M816 3602 c-3 -5 1 -9 9 -9 8 0 12 4 9 9 -3 4 -7 8 -9 8 -2 0 -6 -4
-9 -8z"/>
<path d="M1095 3580 c-3 -5 -1 -10 4 -10 6 0 11 5 11 10 0 6 -2 10 -4 10 -3 0
-8 -4 -11 -10z"/>
<path d="M1219 3568 c-5 -18 -6 -38 -1 -34 7 8 12 36 6 36 -2 0 -4 -1 -5 -2z"/>
<path d="M2559 3558 c-5 -10 -3 -178 2 -178 3 0 6 41 6 90 0 77 -2 100 -8 88z"/>
<path d="M1170 3539 c0 -5 5 -7 10 -4 6 3 10 8 10 11 0 2 -4 4 -10 4 -5 0 -10
-5 -10 -11z"/>
<path d="M1080 3520 c-9 -6 -10 -10 -3 -10 6 0 15 5 18 10 8 12 4 12 -15 0z"/>
<path d="M830 3496 c0 -2 8 -10 18 -17 15 -13 16 -12 3 4 -13 16 -21 21 -21
13z"/>
<path d="M753 3475 c0 -8 4 -12 9 -9 5 3 6 10 3 15 -9 13 -12 11 -12 -6z"/>
<path d="M870 3486 c0 -2 7 -7 16 -10 8 -3 12 -2 9 4 -6 10 -25 14 -25 6z"/>
<path d="M1250 3479 c0 -5 5 -7 10 -4 6 3 10 8 10 11 0 2 -4 4 -10 4 -5 0 -10
-5 -10 -11z"/>
<path d="M1325 3480 c-3 -6 1 -7 9 -4 18 7 21 14 7 14 -6 0 -13 -4 -16 -10z"/>
<path d="M1195 3470 c-4 -6 -11 -7 -17 -4 -7 4 -8 2 -4 -5 6 -9 11 -9 22 0 14
11 18 19 10 19 -3 0 -8 -5 -11 -10z"/>
<path d="M794 3449 c-3 -6 -2 -15 3 -20 5 -5 9 -1 9 11 0 23 -2 24 -12 9z"/>
<path d="M720 3420 c-9 -6 -10 -10 -3 -10 6 0 15 5 18 10 8 12 4 12 -15 0z"/>
<path d="M1130 3419 c0 -5 5 -7 10 -4 6 3 10 8 10 11 0 2 -4 4 -10 4 -5 0 -10
-5 -10 -11z"/>
<path d="M1316 3413 c-6 -14 -5 -15 5 -6 7 7 10 15 7 18 -3 3 -9 -2 -12 -12z"/>
<path d="M776 3398 c3 -4 11 -5 19 -1 21 7 19 12 -4 10 -11 0 -18 -5 -15 -9z"/>
<path d="M715 3381 c-3 -5 -2 -12 3 -15 5 -3 9 1 9 9 0 17 -3 19 -12 6z"/>
<path d="M1055 3380 c3 -5 8 -10 11 -10 2 0 4 5 4 10 0 6 -5 10 -11 10 -5 0
-7 -4 -4 -10z"/>
<path d="M1096 3381 c-3 -5 2 -15 12 -22 15 -12 16 -12 5 2 -7 9 -10 19 -6 22
3 4 4 7 0 7 -3 0 -8 -4 -11 -9z"/>
<path d="M990 3360 c0 -5 5 -10 11 -10 5 0 7 5 4 10 -3 6 -8 10 -11 10 -2 0
-4 -4 -4 -10z"/>
<path d="M1177 3355 c-4 -8 -3 -16 1 -19 4 -3 9 4 9 15 2 23 -3 25 -10 4z"/>
<path d="M1250 3359 c0 -5 5 -7 10 -4 6 3 10 8 10 11 0 2 -4 4 -10 4 -5 0 -10
-5 -10 -11z"/>
<path d="M1295 3360 c3 -5 8 -10 11 -10 2 0 4 5 4 10 0 6 -5 10 -11 10 -5 0
-7 -4 -4 -10z"/>
<path d="M1750 3360 c0 -5 5 -10 11 -10 5 0 7 5 4 10 -3 6 -8 10 -11 10 -2 0
-4 -4 -4 -10z"/>
<path d="M2555 3321 c0 -68 11 -73 13 -6 0 30 -3 55 -6 55 -4 0 -7 -22 -7 -49z"/>
<path d="M705 3340 c-3 -6 1 -7 9 -4 18 7 21 14 7 14 -6 0 -13 -4 -16 -10z"/>
<path d="M1350 3341 c0 -6 4 -13 10 -16 6 -3 7 1 4 9 -7 18 -14 21 -14 7z"/>
<path d="M1295 3320 c-3 -5 -1 -10 4 -10 6 0 11 5 11 10 0 6 -2 10 -4 10 -3 0
-8 -4 -11 -10z"/>
<path d="M706 3298 c3 -5 10 -6 15 -3 13 9 11 12 -6 12 -8 0 -12 -4 -9 -9z"/>
<path d="M890 3300 c0 -5 5 -10 11 -10 5 0 7 5 4 10 -3 6 -8 10 -11 10 -2 0
-4 -4 -4 -10z"/>
<path d="M669 3283 c-13 -16 -12 -17 4 -4 9 7 17 15 17 17 0 8 -8 3 -21 -13z"/>
<path d="M1175 3271 c-3 -5 -2 -12 3 -15 5 -3 9 1 9 9 0 17 -3 19 -12 6z"/>
<path d="M1090 3260 c0 -5 5 -10 11 -10 5 0 7 5 4 10 -3 6 -8 10 -11 10 -2 0
-4 -4 -4 -10z"/>
<path d="M829 3243 c-13 -16 -12 -17 4 -4 9 7 17 15 17 17 0 8 -8 3 -21 -13z"/>
<path d="M656 3241 c9 -9 34 -9 34 -1 0 5 -9 8 -20 7 -10 -1 -17 -3 -14 -6z"/>
<path d="M730 3239 c0 -5 5 -7 10 -4 6 3 10 8 10 11 0 2 -4 4 -10 4 -5 0 -10
-5 -10 -11z"/>
<path d="M1295 3240 c3 -5 8 -10 11 -10 2 0 4 5 4 10 0 6 -5 10 -11 10 -5 0
-7 -4 -4 -10z"/>
<path d="M2555 3195 c0 -30 2 -55 6 -55 3 0 6 25 7 55 0 30 -3 55 -6 55 -4 0
-7 -25 -7 -55z"/>
<path d="M1194 3222 c4 -3 14 -7 22 -8 9 -1 13 0 10 4 -4 3 -14 7 -22 8 -9 1
-13 0 -10 -4z"/>
<path d="M1256 3222 c-3 -5 1 -9 9 -9 8 0 12 4 9 9 -3 4 -7 8 -9 8 -2 0 -6 -4
-9 -8z"/>
<path d="M735 3211 c-3 -5 -2 -12 3 -15 5 -3 9 1 9 9 0 17 -3 19 -12 6z"/>
<path d="M633 3191 c0 -11 5 -18 9 -15 4 3 5 11 1 19 -7 21 -12 19 -10 -4z"/>
<path d="M690 3206 c0 -2 7 -7 16 -10 8 -3 12 -2 9 4 -6 10 -25 14 -25 6z"/>
<path d="M765 3199 c-3 -4 2 -6 10 -5 21 3 28 13 10 13 -9 0 -18 -4 -20 -8z"/>
<path d="M1293 3185 c0 -8 4 -12 9 -9 5 3 6 10 3 15 -9 13 -12 11 -12 -6z"/>
<path d="M666 3182 c-3 -5 1 -9 9 -9 8 0 15 4 15 9 0 4 -4 8 -9 8 -6 0 -12 -4
-15 -8z"/>
<path d="M1150 3185 c0 -7 30 -13 34 -7 3 4 -4 9 -15 9 -10 1 -19 0 -19 -2z"/>
<path d="M1214 3182 c4 -3 14 -7 22 -8 9 -1 13 0 10 4 -4 3 -14 7 -22 8 -9 1
-13 0 -10 -4z"/>
<path d="M1073 3165 c0 -8 4 -12 9 -9 5 3 6 10 3 15 -9 13 -12 11 -12 -6z"/>
<path d="M1120 3160 c-9 -6 -10 -10 -3 -10 6 0 15 5 18 10 8 12 4 12 -15 0z"/>
<path d="M1315 3140 c3 -5 8 -10 11 -10 2 0 4 5 4 10 0 6 -5 10 -11 10 -5 0
-7 -4 -4 -10z"/>
<path d="M836 3127 c3 -10 9 -15 12 -12 3 3 0 11 -7 18 -10 9 -11 8 -5 -6z"/>
<path d="M693 3115 c0 -8 4 -12 9 -9 5 3 6 10 3 15 -9 13 -12 11 -12 -6z"/>
<path d="M750 3121 c0 -6 4 -13 10 -16 6 -3 7 1 4 9 -7 18 -14 21 -14 7z"/>
<path d="M870 3119 c0 -5 5 -7 10 -4 6 3 10 8 10 11 0 2 -4 4 -10 4 -5 0 -10
-5 -10 -11z"/>
<path d="M1156 3113 c-6 -14 -5 -15 5 -6 7 7 10 15 7 18 -3 3 -9 -2 -12 -12z"/>
<path d="M2556 3121 c-4 -7 -5 -15 -2 -18 9 -9 19 4 14 18 -4 11 -6 11 -12 0z"/>
<path d="M1255 3100 c-2 -3 5 -7 16 -7 10 -1 19 2 19 6 0 9 -29 10 -35 1z"/>
<path d="M830 3096 c0 -2 8 -10 18 -17 15 -13 16 -12 3 4 -13 16 -21 21 -21
13z"/>
<path d="M693 3076 c-3 -6 -3 -8 2 -4 4 4 13 3 20 -2 8 -7 12 -5 12 3 0 16
-25 18 -34 3z"/>
<path d="M1133 3071 c0 -11 5 -18 9 -15 4 3 5 11 1 19 -7 21 -12 19 -10 -4z"/>
<path d="M1214 3076 c1 -8 5 -18 8 -22 4 -3 5 1 4 10 -1 8 -5 18 -8 22 -4 3
-5 -1 -4 -10z"/>
<path d="M1330 3080 c0 -5 5 -10 11 -10 5 0 7 5 4 10 -3 6 -8 10 -11 10 -2 0
-4 -4 -4 -10z"/>
<path d="M2555 3080 c-3 -5 -1 -10 4 -10 6 0 11 5 11 10 0 6 -2 10 -4 10 -3 0
-8 -4 -11 -10z"/>
<path d="M1095 3060 c-3 -5 -1 -10 4 -10 6 0 11 5 11 10 0 6 -2 10 -4 10 -3 0
-8 -4 -11 -10z"/>
<path d="M2555 2980 c-1 -44 2 -80 6 -80 3 0 6 36 6 80 1 44 -2 80 -6 80 -3 0
-6 -36 -6 -80z"/>
<path d="M685 3039 c-3 -4 2 -6 10 -5 21 3 28 13 10 13 -9 0 -18 -4 -20 -8z"/>
<path d="M758 3032 c-11 -15 -11 -15 2 -6 8 6 23 10 33 8 11 -1 16 0 13 4 -13
12 -36 10 -48 -6z"/>
<path d="M827 3039 c7 -7 15 -10 18 -7 3 3 -2 9 -12 12 -14 6 -15 5 -6 -5z"/>
<path d="M580 3026 c0 -2 8 -10 18 -17 15 -13 16 -12 3 4 -13 16 -21 21 -21
13z"/>
<path d="M1135 3020 c-3 -5 -1 -10 4 -10 6 0 11 5 11 10 0 6 -2 10 -4 10 -3 0
-8 -4 -11 -10z"/>
<path d="M673 3005 c0 -8 4 -12 9 -9 5 3 6 10 3 15 -9 13 -12 11 -12 -6z"/>
<path d="M956 3007 c3 -10 9 -15 12 -12 3 3 0 11 -7 18 -10 9 -11 8 -5 -6z"/>
<path d="M776 2993 c-6 -14 -5 -15 5 -6 7 7 10 15 7 18 -3 3 -9 -2 -12 -12z"/>
<path d="M1030 3000 c0 -5 5 -10 11 -10 5 0 7 5 4 10 -3 6 -8 10 -11 10 -2 0
-4 -4 -4 -10z"/>
<path d="M1370 3006 c0 -2 7 -7 16 -10 8 -3 12 -2 9 4 -6 10 -25 14 -25 6z"/>
<path d="M1470 2999 c0 -5 5 -7 10 -4 6 3 10 8 10 11 0 2 -4 4 -10 4 -5 0 -10
-5 -10 -11z"/>
<path d="M636 2973 c-6 -14 -5 -15 5 -6 7 7 10 15 7 18 -3 3 -9 -2 -12 -12z"/>
<path d="M1206 2982 c-3 -5 1 -9 9 -9 8 0 12 4 9 9 -3 4 -7 8 -9 8 -2 0 -6 -4
-9 -8z"/>
<path d="M1256 2982 c-3 -5 1 -9 9 -9 8 0 12 4 9 9 -3 4 -7 8 -9 8 -2 0 -6 -4
-9 -8z"/>
<path d="M569 2963 c-13 -16 -12 -17 4 -4 16 13 21 21 13 21 -2 0 -10 -8 -17
-17z"/>
<path d="M674 2962 c4 -3 14 -7 22 -8 9 -1 13 0 10 4 -4 3 -14 7 -22 8 -9 1
-13 0 -10 -4z"/>
<path d="M726 2958 c3 -5 10 -6 15 -3 13 9 11 12 -6 12 -8 0 -12 -4 -9 -9z"/>
<path d="M956 2962 c-3 -5 1 -9 9 -9 8 0 12 4 9 9 -3 4 -7 8 -9 8 -2 0 -6 -4
-9 -8z"/>
<path d="M1080 2960 c-9 -6 -10 -10 -3 -10 6 0 15 5 18 10 8 12 4 12 -15 0z"/>
<path d="M1359 2953 c-13 -16 -12 -17 4 -4 9 7 17 15 17 17 0 8 -8 3 -21 -13z"/>
<path d="M590 2956 c0 -2 8 -10 18 -17 15 -13 16 -12 3 4 -13 16 -21 21 -21
13z"/>
<path d="M1216 2938 c3 -5 10 -6 15 -3 13 9 11 12 -6 12 -8 0 -12 -4 -9 -9z"/>
<path d="M950 2922 c0 -5 7 -9 15 -9 8 0 12 4 9 9 -3 4 -9 8 -15 8 -5 0 -9 -4
-9 -8z"/>
<path d="M590 2896 c7 -7 13 -7 20 0 6 6 3 10 -10 10 -13 0 -16 -4 -10 -10z"/>
<path d="M1155 2899 c-3 -4 2 -6 10 -5 21 3 28 13 10 13 -9 0 -18 -4 -20 -8z"/>
<path d="M949 2883 c-13 -16 -12 -17 4 -4 9 7 17 15 17 17 0 8 -8 3 -21 -13z"/>
<path d="M686 2878 c3 -5 10 -6 15 -3 13 9 11 12 -6 12 -8 0 -12 -4 -9 -9z"/>
<path d="M725 2879 c-3 -4 2 -6 10 -5 21 3 28 13 10 13 -9 0 -18 -4 -20 -8z"/>
<path d="M1705 2880 c-3 -6 1 -7 9 -4 18 7 21 14 7 14 -6 0 -13 -4 -16 -10z"/>
<path d="M2545 2880 c-3 -5 0 -20 7 -32 10 -20 13 -21 16 -5 2 9 8 17 14 17 6
0 6 6 -2 15 -14 17 -26 19 -35 5z"/>
<path d="M636 2867 c3 -10 9 -15 12 -12 3 3 0 11 -7 18 -10 9 -11 8 -5 -6z"/>
<path d="M1395 2861 c-3 -5 -2 -12 3 -15 5 -3 9 1 9 9 0 17 -3 19 -12 6z"/>
<path d="M874 2849 c-3 -6 -2 -15 3 -20 5 -5 9 -1 9 11 0 23 -2 24 -12 9z"/>
<path d="M673 2835 c0 -8 4 -12 9 -9 5 3 6 10 3 15 -9 13 -12 11 -12 -6z"/>
<path d="M1214 2836 c1 -8 5 -18 8 -22 4 -3 5 1 4 10 -1 8 -5 18 -8 22 -4 3
-5 -1 -4 -10z"/>
<path d="M1475 2840 c-3 -5 -1 -10 4 -10 6 0 11 5 11 10 0 6 -2 10 -4 10 -3 0
-8 -4 -11 -10z"/>
<path d="M1050 2820 c0 -5 5 -10 11 -10 5 0 7 5 4 10 -3 6 -8 10 -11 10 -2 0
-4 -4 -4 -10z"/>
<path d="M1090 2819 c0 -5 5 -7 10 -4 6 3 10 8 10 11 0 2 -4 4 -10 4 -5 0 -10
-5 -10 -11z"/>
<path d="M1135 2820 c3 -5 8 -10 11 -10 2 0 4 5 4 10 0 6 -5 10 -11 10 -5 0
-7 -4 -4 -10z"/>
<path d="M993 2805 c0 -8 4 -15 9 -15 4 0 8 4 8 9 0 6 -4 12 -8 15 -5 3 -9 -1
-9 -9z"/>
<path d="M2553 2808 c2 -7 0 -21 -5 -31 -6 -11 -6 -23 0 -30 10 -13 9 -50 -2
-84 -4 -13 -3 -23 1 -23 14 0 9 -95 -5 -96 -26 -3 -26 -6 -2 -13 28 -9 50 -4
50 11 0 5 -4 6 -10 3 -5 -3 -10 -1 -11 4 -3 35 -2 59 5 84 4 16 3 34 -1 40 -8
11 -8 31 -2 77 5 33 -2 70 -12 70 -6 0 -9 -6 -6 -12z"/>
<path d="M604 2803 c4 -4 16 -8 28 -10 28 -4 18 6 -12 12 -12 2 -20 1 -16 -2z"/>
<path d="M1214 2776 c1 -8 5 -18 8 -22 4 -3 5 1 4 10 -1 8 -5 18 -8 22 -4 3
-5 -1 -4 -10z"/>
<path d="M574 2769 c-3 -6 -2 -15 3 -20 5 -5 9 -1 9 11 0 23 -2 24 -12 9z"/>
<path d="M618 2752 c-12 -15 -11 -16 4 -4 9 8 22 11 27 8 5 -4 12 -3 15 2 10
16 -33 10 -46 -6z"/>
<path d="M716 2762 c-3 -5 1 -9 9 -9 8 0 12 4 9 9 -3 4 -7 8 -9 8 -2 0 -6 -4
-9 -8z"/>
<path d="M839 2753 c-12 -16 -12 -17 2 -6 9 7 20 9 24 5 5 -4 5 -1 1 6 -9 16
-11 15 -27 -5z"/>
<path d="M990 2760 c0 -5 5 -10 11 -10 5 0 7 5 4 10 -3 6 -8 10 -11 10 -2 0
-4 -4 -4 -10z"/>
<path d="M1135 2740 c3 -5 8 -10 11 -10 2 0 4 5 4 10 0 6 -5 10 -11 10 -5 0
-7 -4 -4 -10z"/>
<path d="M657 2733 c-10 -9 -9 -23 1 -23 5 0 9 7 9 15 0 17 -1 18 -10 8z"/>
<path d="M990 2719 c0 -5 5 -7 10 -4 6 3 10 8 10 11 0 2 -4 4 -10 4 -5 0 -10
-5 -10 -11z"/>
<path d="M1186 2722 c-3 -5 1 -9 9 -9 8 0 12 4 9 9 -3 4 -7 8 -9 8 -2 0 -6 -4
-9 -8z"/>
<path d="M1259 2728 c-5 -18 -6 -38 -1 -34 7 8 12 36 6 36 -2 0 -4 -1 -5 -2z"/>
<path d="M1135 2711 c-3 -5 -2 -12 3 -15 5 -3 9 1 9 9 0 17 -3 19 -12 6z"/>
<path d="M750 2706 c0 -2 7 -7 16 -10 8 -3 12 -2 9 4 -6 10 -25 14 -25 6z"/>
<path d="M1090 2699 c0 -5 5 -7 10 -4 6 3 10 8 10 11 0 2 -4 4 -10 4 -5 0 -10
-5 -10 -11z"/>
<path d="M829 2683 c-13 -16 -12 -17 4 -4 9 7 17 15 17 17 0 8 -8 3 -21 -13z"/>
<path d="M535 2681 c-3 -5 -2 -12 3 -15 5 -3 9 1 9 9 0 17 -3 19 -12 6z"/>
<path d="M1190 2679 c0 -5 5 -7 10 -4 6 3 10 8 10 11 0 2 -4 4 -10 4 -5 0 -10
-5 -10 -11z"/>
<path d="M1839 2673 c-13 -16 -12 -17 4 -4 16 13 21 21 13 21 -2 0 -10 -8 -17
-17z"/>
<path d="M1907 2679 c7 -7 15 -10 18 -7 3 3 -2 9 -12 12 -14 6 -15 5 -6 -5z"/>
<path d="M620 2665 c0 -2 6 -8 13 -14 10 -8 14 -7 14 2 0 8 -6 14 -14 14 -7 0
-13 -1 -13 -2z"/>
<path d="M1135 2661 c-3 -5 -2 -12 3 -15 5 -3 9 1 9 9 0 17 -3 19 -12 6z"/>
<path d="M1214 2662 c4 -3 14 -7 22 -8 9 -1 13 0 10 4 -4 3 -14 7 -22 8 -9 1
-13 0 -10 -4z"/>
<path d="M590 2640 c0 -5 5 -10 11 -10 5 0 7 5 4 10 -3 6 -8 10 -11 10 -2 0
-4 -4 -4 -10z"/>
<path d="M1870 2640 c0 -5 5 -10 11 -10 5 0 7 5 4 10 -3 6 -8 10 -11 10 -2 0
-4 -4 -4 -10z"/>
<path d="M556 2613 c-6 -14 -5 -15 5 -6 7 7 10 15 7 18 -3 3 -9 -2 -12 -12z"/>
<path d="M1126 2622 c-3 -5 1 -9 9 -9 8 0 12 4 9 9 -3 4 -7 8 -9 8 -2 0 -6 -4
-9 -8z"/>
<path d="M735 2609 c-4 -6 -5 -12 -2 -15 2 -3 7 2 10 11 7 17 1 20 -8 4z"/>
<path d="M936 2593 c-6 -14 -5 -15 5 -6 7 7 10 15 7 18 -3 3 -9 -2 -12 -12z"/>
<path d="M1013 2595 c0 -8 4 -12 9 -9 5 3 6 10 3 15 -9 13 -12 11 -12 -6z"/>
<path d="M1215 2600 c-3 -5 -1 -10 4 -10 6 0 11 5 11 10 0 6 -2 10 -4 10 -3 0
-8 -4 -11 -10z"/>
<path d="M2204 2549 c-4 -7 1 -18 12 -26 12 -9 20 -10 22 -3 2 5 10 10 18 10
17 0 19 16 2 17 -7 0 -20 4 -29 7 -10 4 -20 2 -25 -5z"/>
<path d="M2315 2549 c-4 -6 -13 -8 -21 -5 -8 3 -14 2 -14 -3 0 -14 34 -19 83
-14 24 3 54 0 66 -6 14 -8 21 -8 21 -1 0 5 9 10 20 10 11 0 20 5 20 11 0 5 -5
7 -10 4 -6 -4 -17 -1 -25 5 -8 7 -20 8 -27 4 -19 -12 -77 -14 -84 -3 -7 12
-21 11 -29 -2z"/>
<path d="M2660 2551 c-8 -6 -17 -8 -21 -5 -4 2 -10 0 -13 -5 -7 -11 48 -23 69
-15 8 4 15 10 15 16 0 5 -4 6 -10 3 -5 -3 -10 -1 -10 4 0 13 -10 14 -30 2z"/>
<path d="M2745 2545 l-30 -14 28 -2 c15 -1 33 -2 40 -3 14 -1 17 26 2 30 -5 1
-23 -4 -40 -11z"/>
<path d="M2867 2545 c-8 -19 8 -28 35 -19 21 6 21 7 3 20 -24 18 -31 18 -38
-1z"/>
<path d="M2060 2538 c0 -4 7 -8 15 -8 8 0 15 4 15 8 0 5 -7 9 -15 9 -8 0 -15
-4 -15 -9z"/>
<path d="M2100 2538 c0 -4 7 -8 15 -8 8 0 15 4 15 8 0 5 -7 9 -15 9 -8 0 -15
-4 -15 -9z"/>
<path d="M2140 2538 c0 -4 7 -8 15 -8 8 0 15 4 15 8 0 5 -7 9 -15 9 -8 0 -15
-4 -15 -9z"/>
<path d="M2810 2538 c0 -4 9 -8 20 -8 11 0 20 4 20 8 0 4 -9 8 -20 8 -11 0
-20 -4 -20 -8z"/>
<path d="M2940 2540 c-12 -8 -11 -10 8 -10 12 0 22 5 22 10 0 13 -11 13 -30 0z"/>
<path d="M2995 2540 c-16 -7 -14 -9 12 -7 17 0 29 5 27 9 -6 10 -13 9 -39 -2z"/>
<path d="M2554 2483 c2 -16 -1 -36 -6 -46 -6 -12 -6 -23 1 -31 6 -7 8 -16 4
-19 -3 -4 -1 -7 5 -7 14 0 25 36 16 52 -4 7 -8 27 -7 45 0 18 -3 33 -8 33 -4
0 -6 -12 -5 -27z"/>
<path d="M715 2481 c-3 -5 -2 -12 3 -15 5 -3 9 1 9 9 0 17 -3 19 -12 6z"/>
<path d="M1133 2471 c0 -11 5 -18 9 -15 4 3 5 11 1 19 -7 21 -12 19 -10 -4z"/>
<path d="M666 2462 c-3 -5 1 -9 9 -9 8 0 15 4 15 9 0 4 -4 8 -9 8 -6 0 -12 -4
-15 -8z"/>
<path d="M1215 2459 c-3 -4 2 -6 10 -5 21 3 28 13 10 13 -9 0 -18 -4 -20 -8z"/>
<path d="M1390 2461 c0 -6 4 -13 10 -16 6 -3 7 1 4 9 -7 18 -14 21 -14 7z"/>
<path d="M1993 2445 c0 -8 4 -12 9 -9 5 3 6 10 3 15 -9 13 -12 11 -12 -6z"/>
<path d="M575 2440 c-2 -3 5 -7 16 -7 10 -1 19 2 19 6 0 9 -29 10 -35 1z"/>
<path d="M1055 2420 c3 -5 8 -10 11 -10 2 0 4 5 4 10 0 6 -5 10 -11 10 -5 0
-7 -4 -4 -10z"/>
<path d="M1096 2421 c-3 -5 2 -15 12 -22 15 -12 16 -12 5 2 -7 9 -10 19 -6 22
3 4 4 7 0 7 -3 0 -8 -4 -11 -9z"/>
<path d="M693 2395 c0 -8 4 -12 9 -9 5 3 6 10 3 15 -9 13 -12 11 -12 -6z"/>
<path d="M990 2400 c0 -5 5 -10 11 -10 5 0 7 5 4 10 -3 6 -8 10 -11 10 -2 0
-4 -4 -4 -10z"/>
<path d="M1190 2399 c0 -5 5 -7 10 -4 6 3 10 8 10 11 0 2 -4 4 -10 4 -5 0 -10
-5 -10 -11z"/>
<path d="M1135 2380 c-3 -5 -1 -10 4 -10 6 0 11 5 11 10 0 6 -2 10 -4 10 -3 0
-8 -4 -11 -10z"/>
<path d="M696 2361 c-3 -4 6 -7 19 -7 14 0 22 2 19 5 -8 8 -34 10 -38 2z"/>
<path d="M990 2359 c0 -5 5 -7 10 -4 6 3 10 8 10 11 0 2 -4 4 -10 4 -5 0 -10
-5 -10 -11z"/>
<path d="M1219 2368 c-5 -18 -6 -38 -1 -34 7 8 12 36 6 36 -2 0 -4 -1 -5 -2z"/>
<path d="M2555 2360 c4 -6 2 -17 -4 -23 -5 -7 -8 -23 -4 -35 12 -47 37 -12 26
38 -3 17 -10 30 -15 30 -5 0 -6 -5 -3 -10z"/>
<path d="M816 2327 c3 -10 9 -15 12 -12 3 3 0 11 -7 18 -10 9 -11 8 -5 -6z"/>
<path d="M993 2315 c0 -8 4 -12 9 -9 4 3 8 9 8 15 0 5 -4 9 -8 9 -5 0 -9 -7
-9 -15z"/>
<path d="M593 2290 c-1 -11 2 -20 7 -20 4 0 7 7 6 15 -3 23 -12 26 -13 5z"/>
<path d="M626 2298 c3 -5 10 -6 15 -3 13 9 11 12 -6 12 -8 0 -12 -4 -9 -9z"/>
<path d="M1050 2299 c0 -5 5 -7 10 -4 6 3 10 8 10 11 0 2 -4 4 -10 4 -5 0 -10
-5 -10 -11z"/>
<path d="M1086 2302 c-3 -5 1 -9 9 -9 8 0 12 4 9 9 -3 4 -7 8 -9 8 -2 0 -6 -4
-9 -8z"/>
<path d="M1135 2300 c-3 -5 -1 -10 4 -10 6 0 11 5 11 10 0 6 -2 10 -4 10 -3 0
-8 -4 -11 -10z"/>
<path d="M1219 2308 c-5 -18 -6 -38 -1 -34 7 8 12 36 6 36 -2 0 -4 -1 -5 -2z"/>
<path d="M874 2289 c-3 -6 -2 -15 3 -20 5 -5 9 -1 9 11 0 23 -2 24 -12 9z"/>
<path d="M696 2279 c4 -8 30 -6 38 2 3 3 -5 5 -19 5 -13 0 -22 -3 -19 -7z"/>
<path d="M1256 2258 c3 -5 10 -6 15 -3 13 9 11 12 -6 12 -8 0 -12 -4 -9 -9z"/>
<path d="M2555 2253 c1 -10 -2 -23 -7 -30 -6 -7 -6 -19 0 -30 5 -10 8 -26 7
-35 -2 -10 1 -18 5 -18 9 0 11 11 11 65 0 54 -2 65 -11 65 -4 0 -7 -8 -5 -17z"/>
<path d="M591 2247 c-8 -10 -7 -14 2 -14 8 0 14 6 14 14 0 7 -1 13 -2 13 -2 0
-8 -6 -14 -13z"/>
<path d="M693 2245 c0 -8 4 -12 9 -9 5 3 6 10 3 15 -9 13 -12 11 -12 -6z"/>
<path d="M785 2220 c-3 -6 1 -7 9 -4 18 7 21 14 7 14 -6 0 -13 -4 -16 -10z"/>
<path d="M1154 2222 c4 -3 14 -7 22 -8 9 -1 13 0 10 4 -4 3 -14 7 -22 8 -9 1
-13 0 -10 -4z"/>
<path d="M1393 2215 c0 -8 4 -12 9 -9 5 3 6 10 3 15 -9 13 -12 11 -12 -6z"/>
<path d="M573 2207 c0 -7 9 -14 20 -14 11 -1 18 -1 16 0 -2 2 -11 8 -20 15
-12 9 -16 9 -16 -1z"/>
<path d="M945 2199 c-3 -4 2 -6 10 -5 21 3 28 13 10 13 -9 0 -18 -4 -20 -8z"/>
<path d="M1280 2200 c-9 -6 -10 -10 -3 -10 6 0 15 5 18 10 8 12 4 12 -15 0z"/>
<path d="M1470 2199 c0 -5 5 -7 10 -4 6 3 10 8 10 11 0 2 -4 4 -10 4 -5 0 -10
-5 -10 -11z"/>
<path d="M666 2178 c3 -4 9 -8 15 -8 5 0 9 4 9 8 0 5 -7 9 -15 9 -8 0 -12 -4
-9 -9z"/>
<path d="M1215 2179 c-3 -4 2 -6 10 -5 21 3 28 13 10 13 -9 0 -18 -4 -20 -8z"/>
<path d="M733 2165 c0 -8 4 -12 9 -9 5 3 6 10 3 15 -9 13 -12 11 -12 -6z"/>
<path d="M613 2155 c0 -8 4 -12 9 -9 4 3 8 9 8 15 0 5 -4 9 -8 9 -5 0 -9 -7
-9 -15z"/>
<path d="M959 2153 c-13 -16 -12 -17 4 -4 9 7 17 15 17 17 0 8 -8 3 -21 -13z"/>
<path d="M1070 2166 c0 -2 7 -7 16 -10 8 -3 12 -2 9 4 -6 10 -25 14 -25 6z"/>
<path d="M1746 2158 c3 -5 10 -6 15 -3 13 9 11 12 -6 12 -8 0 -12 -4 -9 -9z"/>
<path d="M1275 2150 c-4 -6 -11 -7 -17 -4 -7 4 -8 2 -4 -5 6 -9 11 -9 22 0 14
11 18 19 10 19 -3 0 -8 -5 -11 -10z"/>
<path d="M1206 2138 c3 -5 10 -6 15 -3 13 9 11 12 -6 12 -8 0 -12 -4 -9 -9z"/>
<path d="M1433 2135 c0 -8 4 -12 9 -9 5 3 6 10 3 15 -9 13 -12 11 -12 -6z"/>
<path d="M956 2113 c-6 -14 -5 -15 5 -6 7 7 10 15 7 18 -3 3 -9 -2 -12 -12z"/>
<path d="M1030 2119 c0 -5 5 -7 10 -4 6 3 10 8 10 11 0 2 -4 4 -10 4 -5 0 -10
-5 -10 -11z"/>
<path d="M1134 2116 c1 -8 5 -18 8 -22 4 -3 5 1 4 10 -1 8 -5 18 -8 22 -4 3
-5 -1 -4 -10z"/>
<path d="M2559 2125 c-1 -3 -2 -8 -3 -12 -1 -5 -5 -14 -9 -20 -6 -9 -3 -11 7
-7 9 3 16 15 16 25 0 17 -8 27 -11 14z"/>
<path d="M759 2098 c-5 -18 -6 -38 -1 -34 7 8 12 36 6 36 -2 0 -4 -1 -5 -2z"/>
<path d="M2555 2071 c-3 -5 -1 -12 5 -16 5 -3 10 1 10 9 0 18 -6 21 -15 7z"/>
<path d="M630 2056 c7 -7 13 -7 20 0 6 6 3 10 -10 10 -13 0 -16 -4 -10 -10z"/>
<path d="M1095 2060 c3 -5 8 -10 11 -10 2 0 4 5 4 10 0 6 -5 10 -11 10 -5 0
-7 -4 -4 -10z"/>
<path d="M1174 2056 c1 -8 5 -18 8 -22 4 -3 5 1 4 10 -1 8 -5 18 -8 22 -4 3
-5 -1 -4 -10z"/>
<path d="M1214 2056 c1 -8 5 -18 8 -22 4 -3 5 1 4 10 -1 8 -5 18 -8 22 -4 3
-5 -1 -4 -10z"/>
<path d="M673 2045 c0 -8 4 -12 9 -9 5 3 6 10 3 15 -9 13 -12 11 -12 -6z"/>
<path d="M815 2049 c-4 -6 -5 -12 -2 -15 2 -3 7 2 10 11 7 17 1 20 -8 4z"/>
<path d="M633 2025 c0 -8 4 -15 9 -15 4 0 8 4 8 9 0 6 -4 12 -8 15 -5 3 -9 -1
-9 -9z"/>
<path d="M2550 2030 c0 -5 5 -10 10 -10 6 0 10 5 10 10 0 6 -4 10 -10 10 -5 0
-10 -4 -10 -10z"/>
<path d="M1916 2018 c3 -5 10 -6 15 -3 13 9 11 12 -6 12 -8 0 -12 -4 -9 -9z"/>
<path d="M773 2005 c0 -8 4 -15 9 -15 4 0 8 4 8 9 0 6 -4 12 -8 15 -5 3 -9 -1
-9 -9z"/>
<path d="M1315 2011 c-3 -5 -2 -12 3 -15 5 -3 9 1 9 9 0 17 -3 19 -12 6z"/>
<path d="M2555 2000 c-3 -5 -1 -10 4 -10 6 0 11 5 11 10 0 6 -2 10 -4 10 -3 0
-8 -4 -11 -10z"/>
<path d="M1623 1973 c0 -6 9 -14 19 -16 10 -3 16 -1 13 4 -3 4 17 7 45 5 27
-1 50 1 50 5 0 4 -29 9 -63 11 -44 2 -64 -1 -64 -9z"/>
<path d="M1805 1980 c-3 -5 -14 -6 -25 -3 -11 3 -20 1 -20 -3 0 -5 24 -9 53
-8 28 1 60 -3 71 -8 11 -6 16 -6 13 -1 -4 6 38 9 103 8 61 -1 110 2 110 5 0 4
-53 7 -117 6 -65 -1 -133 2 -151 5 -17 4 -34 3 -37 -1z"/>
<path d="M2120 1972 c0 -5 7 -9 15 -9 8 0 15 4 15 9 0 4 -7 8 -15 8 -8 0 -15
-4 -15 -8z"/>
<path d="M2160 1970 c0 -3 20 -5 45 -4 31 2 43 -1 39 -8 -5 -7 -2 -8 7 -2 19
12 291 13 307 1 8 -6 12 -6 12 1 0 6 21 10 55 8 30 -1 52 0 50 4 -6 9 -515 9
-515 0z"/>
<path d="M2690 1971 c0 -3 65 -6 145 -6 80 0 145 3 145 6 0 3 -65 6 -145 6
-80 0 -145 -3 -145 -6z"/>
<path d="M2990 1970 c0 -3 49 -5 110 -5 60 0 110 3 110 6 0 4 -49 6 -110 6
-60 -1 -110 -4 -110 -7z"/>
<path d="M3225 1971 c8 -7 235 -7 235 0 0 4 -54 6 -120 6 -66 0 -117 -3 -115
-6z"/>
<path d="M3470 1971 c0 -4 18 -6 40 -6 22 0 40 2 40 6 0 3 -18 6 -40 6 -22 0
-40 -3 -40 -6z"/>
<path d="M3585 1970 c-3 -4 7 -6 20 -4 36 3 31 -7 -22 -51 -27 -22 -49 -43
-51 -47 -2 -4 -10 -8 -18 -8 -8 0 -13 -3 -12 -7 2 -5 -23 -34 -54 -66 -80 -80
-208 -244 -208 -267 0 -5 -3 -10 -7 -10 -5 0 -13 -10 -19 -23 -25 -51 -76
-154 -89 -179 -8 -16 -11 -28 -7 -28 4 0 24 36 44 79 45 96 118 217 153 255
14 15 25 32 25 37 0 13 243 257 291 291 32 24 43 26 117 24 45 -1 82 1 82 4 0
9 -240 8 -245 0z"/>
<path d="M3845 1972 c7 -7 285 -9 285 -2 0 4 -65 6 -145 7 -80 0 -143 -2 -140
-5z"/>
<path d="M4144 1973 c7 -8 126 -10 126 -2 0 4 -29 7 -65 7 -36 0 -64 -3 -61
-5z"/>
<path d="M4286 1971 c8 -8 144 -8 144 0 0 4 -34 6 -75 6 -41 -1 -72 -3 -69 -6z"/>
<path d="M1214 1942 c4 -3 14 -7 22 -8 9 -1 13 0 10 4 -4 3 -14 7 -22 8 -9 1
-13 0 -10 -4z"/>
<path d="M1270 1917 c0 -2 6 -10 14 -16 11 -9 16 -9 22 1 4 7 4 10 -1 6 -4 -4
-14 -3 -22 3 -7 6 -13 9 -13 6z"/>
<path d="M1090 1899 c0 -5 5 -7 10 -4 6 3 10 8 10 11 0 2 -4 4 -10 4 -5 0 -10
-5 -10 -11z"/>
<path d="M1194 1902 c4 -3 14 -7 22 -8 9 -1 13 0 10 4 -4 3 -14 7 -22 8 -9 1
-13 0 -10 -4z"/>
<path d="M735 1889 c-4 -6 -5 -12 -2 -15 2 -3 7 2 10 11 7 17 1 20 -8 4z"/>
<path d="M675 1880 c-3 -5 -1 -10 4 -10 6 0 11 5 11 10 0 6 -2 10 -4 10 -3 0
-8 -4 -11 -10z"/>
<path d="M1080 1860 c-12 -7 -10 -9 7 -7 12 0 19 5 17 9 -6 10 -6 10 -24 -2z"/>
<path d="M1173 1863 c4 -3 1 -13 -6 -22 -11 -14 -10 -14 5 -2 16 12 16 31 1
31 -4 0 -3 -3 0 -7z"/>
<path d="M660 1846 c0 -2 8 -10 18 -17 15 -13 16 -12 3 4 -13 16 -21 21 -21
13z"/>
<path d="M705 1819 c-3 -4 2 -6 10 -5 21 3 28 13 10 13 -9 0 -18 -4 -20 -8z"/>
<path d="M776 1798 c3 -5 10 -6 15 -3 13 9 11 12 -6 12 -8 0 -12 -4 -9 -9z"/>
<path d="M839 1793 c-13 -16 -12 -17 4 -4 9 7 17 15 17 17 0 8 -8 3 -21 -13z"/>
<path d="M1110 1801 c0 -6 4 -12 8 -15 5 -3 9 1 9 9 0 8 -4 15 -9 15 -4 0 -8
-4 -8 -9z"/>
<path d="M1250 1799 c0 -5 5 -7 10 -4 6 3 10 8 10 11 0 2 -4 4 -10 4 -5 0 -10
-5 -10 -11z"/>
<path d="M1836 1793 c-6 -14 -5 -15 5 -6 7 7 10 15 7 18 -3 3 -9 -2 -12 -12z"/>
<path d="M715 1781 c-3 -5 -2 -12 3 -15 5 -3 9 1 9 9 0 17 -3 19 -12 6z"/>
<path d="M1173 1775 c0 -8 4 -12 9 -9 5 3 6 10 3 15 -9 13 -12 11 -12 -6z"/>
<path d="M705 1740 c-3 -6 1 -7 9 -4 18 7 21 14 7 14 -6 0 -13 -4 -16 -10z"/>
<path d="M1055 1740 c3 -5 8 -10 11 -10 2 0 4 5 4 10 0 6 -5 10 -11 10 -5 0
-7 -4 -4 -10z"/>
<path d="M2910 1740 c-12 -8 -10 -10 8 -10 13 0 20 4 17 10 -7 12 -6 12 -25 0z"/>
<path d="M2954 1738 c-3 -4 4 -8 15 -8 12 0 21 4 21 8 0 5 -7 9 -15 9 -9 0
-18 -4 -21 -9z"/>
<path d="M3030 1742 c0 -4 9 -8 20 -9 11 -1 20 2 20 5 0 4 -9 8 -20 9 -11 1
-20 -2 -20 -5z"/>
<path d="M3086 1739 c4 -7 241 -6 248 2 3 2 -53 5 -124 4 -70 0 -126 -3 -124
-6z"/>
<path d="M3350 1740 c0 -5 5 -10 10 -10 6 0 10 5 10 10 0 6 -4 10 -10 10 -5 0
-10 -4 -10 -10z"/>
<path d="M954 1720 c0 -13 4 -16 10 -10 7 7 7 13 0 20 -6 6 -10 3 -10 -10z"/>
<path d="M1870 1731 c0 -4 12 -7 27 -5 15 1 31 -3 35 -9 5 -8 8 -6 8 6 0 13
-8 17 -35 17 -19 0 -35 -4 -35 -9z"/>
<path d="M841 1716 c-9 -11 -9 -16 1 -22 7 -4 10 -4 6 1 -4 4 -3 14 3 22 6 7
9 13 6 13 -2 0 -10 -6 -16 -14z"/>
<path d="M990 1720 c0 -5 5 -10 11 -10 5 0 7 5 4 10 -3 6 -8 10 -11 10 -2 0
-4 -4 -4 -10z"/>
<path d="M793 1705 c0 -8 4 -12 9 -9 5 3 6 10 3 15 -9 13 -12 11 -12 -6z"/>
<path d="M1055 1700 c-3 -5 -1 -10 4 -10 6 0 11 5 11 10 0 6 -2 10 -4 10 -3 0
-8 -4 -11 -10z"/>
<path d="M1096 1702 c-2 -4 -1 -14 4 -22 7 -11 9 -9 7 8 -1 24 -3 26 -11 14z"/>
<path d="M1155 1699 c-3 -4 2 -6 10 -5 21 3 28 13 10 13 -9 0 -18 -4 -20 -8z"/>
<path d="M1296 1702 c-2 -4 -1 -14 4 -22 7 -11 9 -9 7 8 -1 24 -3 26 -11 14z"/>
<path d="M990 1681 c0 -6 4 -13 10 -16 6 -3 7 1 4 9 -7 18 -14 21 -14 7z"/>
<path d="M1250 1679 c0 -5 5 -7 10 -4 6 3 10 8 10 11 0 2 -4 4 -10 4 -5 0 -10
-5 -10 -11z"/>
<path d="M1176 1658 c3 -5 10 -6 15 -3 13 9 11 12 -6 12 -8 0 -12 -4 -9 -9z"/>
<path d="M1075 1651 c-3 -5 -2 -12 3 -15 5 -3 9 1 9 9 0 17 -3 19 -12 6z"/>
<path d="M1587 1599 c7 -7 15 -10 18 -7 3 3 -2 9 -12 12 -14 6 -15 5 -6 -5z"/>
<path d="M1050 1580 c0 -5 5 -10 11 -10 5 0 7 5 4 10 -3 6 -8 10 -11 10 -2 0
-4 -4 -4 -10z"/>
<path d="M1096 1582 c-2 -4 -1 -14 4 -22 7 -11 9 -9 7 8 -1 24 -3 26 -11 14z"/>
<path d="M1135 1580 c-3 -5 -1 -10 4 -10 6 0 11 5 11 10 0 6 -2 10 -4 10 -3 0
-8 -4 -11 -10z"/>
<path d="M1296 1582 c-2 -4 -1 -14 4 -22 7 -11 9 -9 7 8 -1 24 -3 26 -11 14z"/>
<path d="M870 1556 c7 -7 13 -7 20 0 6 6 3 10 -10 10 -13 0 -16 -4 -10 -10z"/>
<path d="M1405 1560 c-3 -6 1 -7 9 -4 18 7 21 14 7 14 -6 0 -13 -4 -16 -10z"/>
<path d="M1473 1555 c0 -8 4 -12 9 -9 5 3 6 10 3 15 -9 13 -12 11 -12 -6z"/>
<path d="M1206 1542 c-3 -5 1 -9 9 -9 8 0 12 4 9 9 -3 4 -7 8 -9 8 -2 0 -6 -4
-9 -8z"/>
<path d="M1256 1542 c-3 -5 1 -9 9 -9 8 0 12 4 9 9 -3 4 -7 8 -9 8 -2 0 -6 -4
-9 -8z"/>
<path d="M870 1519 c0 -5 5 -7 10 -4 6 3 10 8 10 11 0 2 -4 4 -10 4 -5 0 -10
-5 -10 -11z"/>
<path d="M1910 1518 c0 -11 8 -18 20 -18 11 0 20 5 20 11 0 5 -5 7 -11 3 -6
-3 -15 0 -20 7 -7 11 -9 10 -9 -3z"/>
<path d="M1967 1523 c-17 -16 -2 -21 63 -21 38 0 68 4 65 8 -2 4 -31 6 -64 5
-33 -1 -58 2 -55 6 6 11 0 12 -9 2z"/>
<path d="M2110 1509 c0 -5 17 -9 37 -9 43 0 40 8 -5 14 -18 2 -32 -1 -32 -5z"/>
<path d="M2193 1507 c1 -5 6 -8 10 -8 4 1 25 1 47 1 22 0 40 3 40 8 0 4 -22 7
-50 7 -27 0 -49 -4 -47 -8z"/>
<path d="M2300 1509 c0 -5 14 -9 32 -9 36 0 32 10 -6 14 -14 2 -26 -1 -26 -5z"/>
<path d="M2370 1508 c0 -5 18 -8 40 -8 22 0 40 3 40 8 0 4 -18 7 -40 7 -22 0
-40 -3 -40 -7z"/>
<path d="M2460 1508 c0 -5 11 -8 25 -8 14 0 25 3 25 8 0 4 -11 7 -25 7 -14 0
-25 -3 -25 -7z"/>
<path d="M2710 1509 c0 -5 11 -9 25 -9 14 0 25 2 25 4 0 2 -11 6 -25 8 -14 3
-25 1 -25 -3z"/>
<path d="M2770 1508 c0 -5 48 -8 107 -8 58 0 104 3 100 6 -9 9 -207 10 -207 2z"/>
<path d="M2990 1508 c0 -4 21 -8 48 -7 52 1 48 6 -10 11 -21 2 -38 0 -38 -4z"/>
<path d="M3090 1508 c0 -5 27 -8 60 -8 33 0 60 3 60 8 0 4 -27 7 -60 7 -33 0
-60 -3 -60 -7z"/>
<path d="M970 1499 c0 -5 5 -7 10 -4 6 3 10 8 10 11 0 2 -4 4 -10 4 -5 0 -10
-5 -10 -11z"/>
<path d="M1010 1499 c0 -5 5 -7 10 -4 6 3 10 8 10 11 0 2 -4 4 -10 4 -5 0 -10
-5 -10 -11z"/>
<path d="M1216 1498 c3 -5 10 -6 15 -3 13 9 11 12 -6 12 -8 0 -12 -4 -9 -9z"/>
<path d="M1076 1482 c-3 -5 1 -9 9 -9 8 0 12 4 9 9 -3 4 -7 8 -9 8 -2 0 -6 -4
-9 -8z"/>
<path d="M1010 1459 c0 -5 5 -7 10 -4 6 3 10 8 10 11 0 2 -4 4 -10 4 -5 0 -10
-5 -10 -11z"/>
<path d="M1155 1459 c-3 -4 2 -6 10 -5 21 3 28 13 10 13 -9 0 -18 -4 -20 -8z"/>
<path d="M1315 1460 c3 -5 8 -10 11 -10 2 0 4 5 4 10 0 6 -5 10 -11 10 -5 0
-7 -4 -4 -10z"/>
<path d="M2070 1459 c0 -5 5 -7 10 -4 6 3 10 8 10 11 0 2 -4 4 -10 4 -5 0 -10
-5 -10 -11z"/>
<path d="M1376 1442 c-3 -5 1 -9 9 -9 8 0 12 4 9 9 -3 4 -7 8 -9 8 -2 0 -6 -4
-9 -8z"/>
<path d="M1456 1438 c3 -5 10 -6 15 -3 13 9 11 12 -6 12 -8 0 -12 -4 -9 -9z"/>
<path d="M1090 1419 c0 -5 5 -7 10 -4 6 3 10 8 10 11 0 2 -4 4 -10 4 -5 0 -10
-5 -10 -11z"/>
<path d="M1270 1420 c0 -5 5 -10 10 -10 6 0 10 5 10 10 0 6 -4 10 -10 10 -5 0
-10 -4 -10 -10z"/>
<path d="M915 1400 c-3 -5 -1 -10 4 -10 6 0 11 5 11 10 0 6 -2 10 -4 10 -3 0
-8 -4 -11 -10z"/>
<path d="M1330 1400 c0 -5 5 -10 11 -10 5 0 7 5 4 10 -3 6 -8 10 -11 10 -2 0
-4 -4 -4 -10z"/>
<path d="M1135 1380 c3 -5 8 -10 11 -10 2 0 4 5 4 10 0 6 -5 10 -11 10 -5 0
-7 -4 -4 -10z"/>
<path d="M915 1360 c3 -5 8 -10 11 -10 2 0 4 5 4 10 0 6 -5 10 -11 10 -5 0 -7
-4 -4 -10z"/>
<path d="M1214 1336 c1 -8 5 -18 8 -22 4 -3 5 1 4 10 -1 8 -5 18 -8 22 -4 3
-5 -1 -4 -10z"/>
<path d="M1135 1300 c3 -5 8 -10 11 -10 2 0 4 5 4 10 0 6 -5 10 -11 10 -5 0
-7 -4 -4 -10z"/>
<path d="M1335 1280 c-3 -5 -1 -10 4 -10 6 0 11 5 11 10 0 6 -2 10 -4 10 -3 0
-8 -4 -11 -10z"/>
<path d="M1055 1260 c3 -5 8 -10 11 -10 2 0 4 5 4 10 0 6 -5 10 -11 10 -5 0
-7 -4 -4 -10z"/>
<path d="M1174 1262 c4 -3 14 -7 22 -8 9 -1 13 0 10 4 -4 3 -14 7 -22 8 -9 1
-13 0 -10 -4z"/>
<path d="M3100 1245 c-6 -16 -24 -73 -40 -128 -39 -131 -104 -472 -86 -456 3
3 9 26 12 50 19 154 76 400 115 503 10 27 17 52 14 54 -2 3 -9 -8 -15 -23z"/>
<path d="M1466 1242 c-3 -5 1 -9 9 -9 8 0 12 4 9 9 -3 4 -7 8 -9 8 -2 0 -6 -4
-9 -8z"/>
<path d="M1055 1220 c-3 -5 -1 -10 4 -10 6 0 11 5 11 10 0 6 -2 10 -4 10 -3 0
-8 -4 -11 -10z"/>
<path d="M1296 1218 c3 -4 11 -5 19 -1 21 7 19 12 -4 10 -11 0 -18 -5 -15 -9z"/>
<path d="M1213 1185 c0 -8 4 -12 9 -9 5 3 6 10 3 15 -9 13 -12 11 -12 -6z"/>
<path d="M1130 1180 c0 -5 5 -10 11 -10 5 0 7 5 4 10 -3 6 -8 10 -11 10 -2 0
-4 -4 -4 -10z"/>
<path d="M1513 1175 c0 -8 4 -12 9 -9 5 3 6 10 3 15 -9 13 -12 11 -12 -6z"/>
<path d="M1355 1151 c-3 -5 -2 -12 3 -15 5 -3 9 1 9 9 0 17 -3 19 -12 6z"/>
<path d="M1310 1139 c0 -5 5 -7 10 -4 6 3 10 8 10 11 0 2 -4 4 -10 4 -5 0 -10
-5 -10 -11z"/>
<path d="M1209 1123 c-13 -16 -12 -17 4 -4 9 7 17 15 17 17 0 8 -8 3 -21 -13z"/>
<path d="M2066 1064 c7 -26 12 -50 9 -54 -3 -5 -1 -10 5 -12 5 -1 11 -22 12
-45 2 -24 7 -43 11 -43 5 0 7 -12 5 -27 -2 -14 2 -28 7 -30 11 -3 13 36 3 53
-3 5 -11 35 -17 67 -6 32 -13 62 -16 68 -6 9 37 12 128 10 27 -1 46 2 43 7 -3
5 -44 8 -91 7 -82 -2 -85 -2 -91 21 -3 13 -10 24 -14 24 -4 0 -2 -21 6 -46z"/>
<path d="M1473 1075 c0 -8 4 -12 9 -9 5 3 6 10 3 15 -9 13 -12 11 -12 -6z"/>
<path d="M2270 1058 c0 -3 45 -6 100 -6 55 1 100 4 100 7 0 3 -45 6 -100 6
-55 0 -100 -3 -100 -7z"/>
<path d="M2485 1060 c-3 -5 1 -10 9 -10 9 0 16 5 16 10 0 6 -4 10 -9 10 -6 0
-13 -4 -16 -10z"/>
<path d="M2635 1059 c-16 -6 -14 -8 13 -8 33 -1 41 4 20 12 -7 2 -22 1 -33 -4z"/>
<path d="M2690 1060 c0 -3 36 -6 80 -6 44 0 80 2 80 5 0 3 -36 6 -80 6 -44 0
-80 -2 -80 -5z"/>
<path d="M2868 1059 c-6 -4 6 -6 26 -6 20 1 36 4 36 8 0 8 -48 7 -62 -2z"/>
<path d="M2955 1059 c-14 -5 -4 -7 28 -7 49 1 57 8 15 12 -13 2 -33 -1 -43 -5z"/>
<path d="M1875 1041 c-3 -5 -2 -12 3 -15 5 -3 9 1 9 9 0 17 -3 19 -12 6z"/>
<path d="M1296 1018 c3 -5 10 -6 15 -3 13 9 11 12 -6 12 -8 0 -12 -4 -9 -9z"/>
<path d="M1370 1006 c0 -2 7 -7 16 -10 8 -3 12 -2 9 4 -6 10 -25 14 -25 6z"/>
<path d="M1596 958 c3 -5 10 -6 15 -3 13 9 11 12 -6 12 -8 0 -12 -4 -9 -9z"/>
<path d="M2148 818 c9 -9 15 -9 24 0 9 9 7 12 -12 12 -19 0 -21 -3 -12 -12z"/>
<path d="M2190 820 c0 -8 197 -6 206 2 3 3 -42 6 -100 5 -58 0 -106 -3 -106
-7z"/>
<path d="M2410 822 c0 -9 77 -8 87 2 3 3 -15 6 -40 6 -26 0 -47 -4 -47 -8z"/>
<path d="M2690 821 c0 -4 11 -6 25 -3 14 2 25 6 25 8 0 2 -11 4 -25 4 -14 0
-25 -4 -25 -9z"/>
<path d="M2750 822 c0 -4 9 -8 20 -8 11 0 20 4 20 8 0 4 -9 8 -20 8 -11 0 -20
-4 -20 -8z"/>
<path d="M2815 821 c24 -8 102 -7 111 1 3 3 -25 6 -63 6 -37 0 -59 -4 -48 -7z"/>
<path d="M2940 820 c0 -5 7 -7 15 -4 8 4 15 8 15 10 0 2 -7 4 -15 4 -8 0 -15
-4 -15 -10z"/>
</g>
</svg>
